Coordinates
version=1
nRows=4
nColumns=114
inDegrees=yes

Units are S.I. units (second, meters, Newtons, ...)
If the header above contains a line with 'inDegrees', this indicates whether rotational values are in degrees (yes) or radians (no).

endheader 
time	pelvis_tilt	pelvis_list	pelvis_rotation	pelvis_tx	pelvis_ty	pelvis_tz	hip_flexion_l	hip_adduction_l	hip_rotation_l	hip_flexion_r	hip_adduction_r	hip_rotation_r	knee_angle_l	knee_angle_r	ankle_angle_l	ankle_angle_r	subtalar_angle_l	subtalar_angle_r	mtp_angle_l	mtp_angle_r	lumbar_extension	lumbar_bending	lumbar_rotation	arm_flex_l	arm_add_l	arm_rot_l	arm_flex_r	arm_add_r	arm_rot_r	elbow_flex_l	elbow_flex_r	pro_sup_l	pro_sup_r	addbrev_l/activation	addlong_l/activation	addmagDist_l/activation	addmagIsch_l/activation	addmagMid_l/activation	addmagProx_l/activation	bflh_l/activation	bfsh_l/activation	edl_l/activation	ehl_l/activation	fdl_l/activation	fhl_l/activation	gaslat_l/activation	gasmed_l/activation	glmax1_l/activation	glmax2_l/activation	glmax3_l/activation	glmed1_l/activation	glmed2_l/activation	glmed3_l/activation	glmin1_l/activation	glmin2_l/activation	glmin3_l/activation	grac_l/activation	iliacus_l/activation	perbrev_l/activation	perlong_l/activation	piri_l/activation	psoas_l/activation	recfem_l/activation	sart_l/activation	semimem_l/activation	semiten_l/activation	soleus_l/activation	tfl_l/activation	tibant_l/activation	tibpost_l/activation	vasint_l/activation	vaslat_l/activation	vasmed_l/activation	addbrev_r/activation	addlong_r/activation	addmagDist_r/activation	addmagIsch_r/activation	addmagMid_r/activation	addmagProx_r/activation	bflh_r/activation	bfsh_r/activation	edl_r/activation	ehl_r/activation	fdl_r/activation	fhl_r/activation	gaslat_r/activation	gasmed_r/activation	glmax1_r/activation	glmax2_r/activation	glmax3_r/activation	glmed1_r/activation	glmed2_r/activation	glmed3_r/activation	glmin1_r/activation	glmin2_r/activation	glmin3_r/activation	grac_r/activation	iliacus_r/activation	perbrev_r/activation	perlong_r/activation	piri_r/activation	psoas_r/activation	recfem_r/activation	sart_r/activation	semimem_r/activation	semiten_r/activation	soleus_r/activation	tfl_r/activation	tibant_r/activation	tibpost_r/activation	vasint_r/activation	vaslat_r/activation	vasmed_r/activation	
          3.34000000	          9.59077268	          0.85730488	          8.68624096	          1.62566469	          0.76973630	          0.02647102	         28.46385046	         -8.41552530	        -11.68729341	         31.91048543	        -10.86286579	         -0.27984885	         90.40173117	         78.04850712	         14.79901321	         33.80115371	        -16.57494266	         -3.44291485	          4.99831607	          4.99761672	        -28.08950187	          2.81329553	         -0.00519462	          0.84465281	         -9.38031135	          1.06978723	          2.55329740	        -17.15474873	          3.43219256	         52.73855338	         50.44166426	         74.45065891	         82.12136494	          0.28197675	          0.07291605	          0.10517023	          0.03027570	          0.35140784	          0.52396284	          0.41468592	          0.16997582	          0.29422576	          0.28744912	          0.24062229	          0.27112542	          0.04471922	          0.02221873	          0.05422483	          0.03375947	          0.80550446	          0.01383215	          0.01983259	          0.04735560	          0.01777229	          0.02265935	          0.04131183	          0.31524449	          0.03643535	          0.04108015	          0.01920356	          0.99018422	          0.32899400	          0.99818366	          0.15136354	          0.03480694	          0.05815925	          0.01192895	          0.02943525	          0.16601803	          0.47449401	          0.04770216	          0.01921689	          0.03318699	          0.45965176	          0.29972501	          0.98962576	          0.99704336	          0.97340866	          0.18014077	          0.01799277	          0.01662846	          0.13789618	          0.14109070	          0.24017380	          0.20591072	          0.01224788	          0.01119704	          0.97731747	          0.99280142	          0.99407670	          0.96625681	          0.84653230	          0.66825668	          0.29013745	          0.11410012	          0.10895415	          0.02169550	          0.01655273	          0.09396368	          0.06073375	          0.04264937	          0.01629988	          0.99949900	          0.01570484	          0.01529041	          0.01807027	          0.65882179	          0.05544727	          0.12814334	          0.55914399	          0.99802592	          0.99939484	          0.99842561	
          3.36000000	          9.31342196	          0.73672083	          8.82333946	          1.63279282	          0.77940014	          0.02979763	         28.07238414	         -7.73660037	        -12.59492681	         29.98293064	        -10.40988995	         -0.92671434	         88.40001177	         75.27460578	         16.86229709	         34.60555354	        -16.49585721	         -3.04180002	          3.72128651	          0.47503635	        -26.84884719	          2.58634105	          0.01462633	          0.94759209	        -11.81232527	          2.05361951	          2.80138670	        -17.68951634	          2.40416730	         61.86897570	         58.07864594	         74.88364947	         82.66694542	          0.21855195	          0.05649196	          0.08061868	          0.02466382	          0.27549151	          0.87185715	          0.27964722	          0.12965880	          0.20888190	          0.20115657	          0.18202840	          0.25151088	          0.05774140	          0.03337806	          0.04934907	          0.02874058	          0.79342060	          0.01126017	          0.01728770	          0.04950581	          0.01464498	          0.01959159	          0.04015874	          0.22718516	          0.03336388	          0.14462467	          0.22863772	          0.68978300	          0.26294951	          0.91955265	          0.11376266	          0.02577293	          0.04367420	          0.12232296	          0.05934996	          0.11356928	          0.31977023	          0.17658909	          0.14995183	          0.17655784	          0.42326929	          0.29666392	          0.98469189	          0.98221868	          0.92302576	          0.20503420	          0.01323579	          0.01402459	          0.13485129	          0.15439899	          0.22416483	          0.24449990	          0.01077721	          0.01036187	          0.88736793	          0.98852706	          0.99192965	          0.91195663	          0.64389129	          0.49994023	          0.28659363	          0.14346270	          0.13839144	          0.01762898	          0.02153621	          0.07137418	          0.04458273	          0.05120495	          0.02080566	          0.99920321	          0.01454065	          0.01123502	          0.01370713	          0.61134251	          0.32071998	          0.20490922	          0.44869726	          0.99941661	          0.99977267	          0.99956673	
          3.38000000	          8.54455302	          0.51927218	          8.89940953	          1.64066977	          0.79239122	          0.03172449	         27.20472571	         -7.16389337	        -12.92229151	         28.12520755	         -9.91962400	         -1.59496281	         85.44496491	         71.48164629	         16.85293608	         34.87332585	        -18.03542335	         -2.91013897	          0.85224342	         -2.91481051	        -24.75333077	          2.29822060	          0.06378560	          0.02991483	        -15.88929654	          0.98760450	          2.23309903	        -19.53278280	          1.15106635	         76.48201127	         70.96161128	         75.62831896	         83.75338141	          0.16435125	          0.10413172	          0.14031145	          0.16872474	          0.20017623	          0.58439420	          0.18835716	          0.09445200	          0.16151615	          0.16076870	          0.17014181	          0.34736602	          0.05211227	          0.03287346	          0.21138562	          0.23774103	          0.53337653	          0.25000114	          0.26708515	          0.22668648	          0.16942380	          0.19441547	          0.20318007	          0.15939009	          0.06960638	          0.28072031	          0.73520470	          0.46372300	          0.17684696	          0.95695476	          0.07747122	          0.20025858	          0.07078735	          0.71136632	          0.19476247	          0.07737146	          0.24468006	          0.25318684	          0.71889182	          0.31325061	          0.33825686	          0.28952086	          0.80620695	          0.83009151	          0.64546383	          0.16159761	          0.01165487	          0.01309838	          0.16144543	          0.16872727	          0.19836150	          0.22692817	          0.01052742	          0.01023932	          0.61504618	          0.81666252	          0.88823617	          0.91323788	          0.54712020	          0.37250392	          0.32216717	          0.15864182	          0.15337784	          0.01581989	          0.02698127	          0.07643496	          0.06665226	          0.05029149	          0.02426488	          0.99646357	          0.01416927	          0.01068720	          0.01207166	          0.82543739	          0.38301881	          0.19803224	          0.33959246	          0.99741538	          0.99929174	          0.99846488	
          3.40000000	          7.37225113	          0.20318440	          8.99620972	          1.64960338	          0.81025363	          0.03216356	         25.70059590	         -6.55823020	        -13.22859456	         26.03933985	         -9.36187936	         -2.35804816	         80.80115162	         66.23992680	         14.92166343	         33.79483999	        -20.47655532	         -3.19353718	         -4.78605783	         -5.71850761	        -21.85850010	          1.99000741	          0.00886152	         -1.13666370	        -21.52724873	         -2.38192529	          1.72556128	        -22.90467787	         -0.10829423	         94.00468076	         87.35696718	         76.88407779	         85.80118182	          0.15393964	          0.11370894	          0.27488503	          0.47442882	          0.19439169	          0.39532935	          0.12723737	          0.06691597	          0.11330139	          0.11253782	          0.23792538	          0.58863538	          0.04380144	          0.02974630	          0.26712804	          0.47170360	          0.40620085	          0.67950992	          0.30460608	          0.22728939	          0.28946916	          0.20121551	          0.18453275	          0.11404753	          0.05123965	          0.41154361	          0.59173106	          0.34281143	          0.11907650	          0.99092587	          0.05261244	          0.42839122	          0.05419420	          0.98494428	          0.13828897	          0.05251537	          0.51683057	          0.34236797	          0.88706785	          0.43362530	          0.24707927	          0.24925318	          0.54134716	          0.55623568	          0.43582204	          0.11943370	          0.01651598	          0.02386378	          0.13048987	          0.13784987	          0.17687197	          0.21020184	          0.02501695	          0.05449336	          0.41624760	          0.54766603	          0.59463235	          0.67705824	          0.43117640	          0.27290068	          0.36918224	          0.30628673	          0.22301269	          0.02803781	          0.20670193	          0.14450901	          0.14126328	          0.04368013	          0.06547025	          0.84547926	          0.02701504	          0.01319719	          0.01850224	          0.95456772	          0.36704236	          0.14518515	          0.24112417	          0.85256395	          0.88679762	          0.85870640	
